<svg xmlns="http://www.w3.org/2000/svg" xmlns:xlink="http://www.w3.org/1999/xlink" width="144" height="48" viewBox="0 0 144 48">
  <defs>
    <linearGradient id="linear-gradient" x1="0.347" y1="-0.006" x2="0.548" y2="0.943" gradientUnits="objectBoundingBox">
      <stop offset="0" stop-color="#f1040c"/>
      <stop offset="0.951" stop-color="#fc4f4f"/>
    </linearGradient>
    <linearGradient id="linear-gradient-2" x1="0.868" y1="0.131" x2="-0.105" y2="0.571" gradientUnits="objectBoundingBox">
      <stop offset="0" stop-color="#0073e6"/>
      <stop offset="1" stop-color="#00a7ff"/>
    </linearGradient>
    <linearGradient id="linear-gradient-3" x1="0.5" x2="0.756" y2="0.959" gradientUnits="objectBoundingBox">
      <stop offset="0" stop-color="#3bde05"/>
      <stop offset="1" stop-color="#05b713"/>
    </linearGradient>
    <linearGradient id="linear-gradient-4" x1="0.958" y1="0.077" x2="0.174" y2="0.851" gradientUnits="objectBoundingBox">
      <stop offset="0" stop-color="#fd0"/>
      <stop offset="1" stop-color="#f1a304"/>
    </linearGradient>
  </defs>
  <g id="Group_30039" data-name="Group 30039" transform="translate(-7625 -3348)">
    <rect id="Rectangle_15921" data-name="Rectangle 15921" width="48" height="48" transform="translate(7625 3348)" fill="none"/>
    <g id="Group_30027" data-name="Group 30027" transform="translate(7627.883 3350.769)">
      <path id="Path_172" data-name="Path 172" d="M4.951,24.375a17.989,17.989,0,0,0,23.525-.132A14.55,14.55,0,0,1,8.813,10.927c0-.08-.005-.158-.005-.238V10.65A7.8,7.8,0,0,1,10.151,6.3,13.937,13.937,0,0,0,3.085,22.523,18.274,18.274,0,0,0,4.951,24.375Z" transform="translate(4.476 10.543)" fill="url(#linear-gradient)"/>
      <path id="Path_173" data-name="Path 173" d="M5.355,4.95a17.989,17.989,0,0,0,.132,23.525A14.546,14.546,0,0,1,18.8,8.812c.08,0,.158-.005.238-.005h.039a7.8,7.8,0,0,1,4.346,1.343A13.937,13.937,0,0,0,7.207,3.084,18.274,18.274,0,0,0,5.355,4.95Z" transform="translate(2.075 4.592)" fill="url(#linear-gradient-2)"/>
      <path id="Path_174" data-name="Path 174" d="M26.95,5.354a17.989,17.989,0,0,0-23.525.132A14.55,14.55,0,0,1,23.087,18.8c0,.08.005.158.005.238v.036a7.8,7.8,0,0,1-1.345,4.349A13.935,13.935,0,0,0,28.815,7.206,18.275,18.275,0,0,0,26.95,5.354Z" transform="translate(5.857 2.191)" fill="url(#linear-gradient-3)"/>
      <path id="Path_175" data-name="Path 175" d="M24.376,26.949a17.989,17.989,0,0,0-.132-23.525A14.55,14.55,0,0,1,10.928,23.086c-.08,0-.158.005-.238.005h-.039a7.8,7.8,0,0,1-4.346-1.345,13.935,13.935,0,0,0,16.219,7.068A18.274,18.274,0,0,0,24.376,26.949Z" transform="translate(10.428 5.972)" fill="url(#linear-gradient-4)"/>
    </g>
    <path id="Path_354" data-name="Path 354" d="M56.348,20.96H54.033V10.067h3.33l2.718,8.348,2.733-8.348h3.3V20.96H63.89l.179-8.47-2.733,8.47h-2.4l-2.822-8.545Z" transform="translate(7618.894 3356.933)"/>
    <path id="Path_355" data-name="Path 355" d="M79.023,10.067h2.27V20.96h-2.27Z" transform="translate(7608.303 3356.933)"/>
    <path id="Path_356" data-name="Path 356" d="M89.994,10.067h5.99v1.954H90.356q-1.78,0-1.78,1.425a.979.979,0,0,0,.407.878,1.657,1.657,0,0,0,1.041.3h3a8.922,8.922,0,0,1,1.554.122,2.86,2.86,0,0,1,1.275.735,2.952,2.952,0,0,1,.656,2.22,3.937,3.937,0,0,1-.339,1.681,2.124,2.124,0,0,1-.694.879,2.913,2.913,0,0,1-1.169.53,6.281,6.281,0,0,1-1.6.167H86.644V19.006h5.7a2.771,2.771,0,0,0,1.305-.251.979.979,0,0,0,.46-.947v-.227a1.156,1.156,0,0,0-.242-.682,1.324,1.324,0,0,0-.582-.3,3.5,3.5,0,0,0-.778-.075H89.82a4.323,4.323,0,0,1-2.683-.727,2.89,2.89,0,0,1-.944-2.439,3.948,3.948,0,0,1,.286-1.545,2.466,2.466,0,0,1,.785-1.053,3.048,3.048,0,0,1,1.147-.523A6.026,6.026,0,0,1,89.994,10.067Z" transform="translate(7605.265 3356.933)"/>
    <path id="Path_357" data-name="Path 357" d="M106.936,20.96h-2.414l4.557-10.893h2.414l4.633,10.893H113.59l-1-2.606h-4.723Zm1.674-4.531h3.245l-1.645-4.166Z" transform="translate(7597.497 3356.933)"/>
    <path id="Path_358" data-name="Path 358" d="M133.62,20.96h-2.414l4.557-10.893h2.414l4.632,10.893h-2.535l-1-2.606h-4.723Zm1.675-4.531h3.244l-1.644-4.166Z" transform="translate(7586.188 3356.933)"/>
    <path id="Path_359" data-name="Path 359" d="M155.017,20.96h-2.338V10.067h3.364l2.746,8.348,2.761-8.348h3.335V20.96h-2.248l.181-8.47-2.761,8.47h-2.43l-2.852-8.545Z" transform="translate(7577.087 3356.933)"/>
    <path id="Path_360" data-name="Path 360" d="M178.033,10.067H180.3V20.96h-2.269Z" transform="translate(7566.342 3356.933)"/>
    <path id="Path_361" data-name="Path 361" d="M188.915,10.067h5.921v1.954h-5.561q-1.774,0-1.774,1.425a.98.98,0,0,0,.406.878,1.645,1.645,0,0,0,1.037.3h2.991a8.853,8.853,0,0,1,1.548.122,2.85,2.85,0,0,1,1.27.735,2.959,2.959,0,0,1,.654,2.22,3.971,3.971,0,0,1-.339,1.681,2.121,2.121,0,0,1-.691.879,2.9,2.9,0,0,1-1.164.53,6.239,6.239,0,0,1-1.594.167h-5.982V19.006h5.621a2.752,2.752,0,0,0,1.3-.251.98.98,0,0,0,.459-.947v-.227a1.156,1.156,0,0,0-.241-.682,1.313,1.313,0,0,0-.58-.3,3.474,3.474,0,0,0-.776-.075h-2.681a4.293,4.293,0,0,1-2.673-.727,2.9,2.9,0,0,1-.941-2.439,3.969,3.969,0,0,1,.285-1.545,2.465,2.465,0,0,1,.782-1.053,3.035,3.035,0,0,1,1.142-.523A5.984,5.984,0,0,1,188.915,10.067Z" transform="translate(7563.335 3356.933)"/>
    <rect id="Rectangle_15922" data-name="Rectangle 15922" width="144" height="48" transform="translate(7625 3348)" fill="none"/>
  </g>
</svg>
